<svg xmlns="http://www.w3.org/2000/svg" viewBox="0 0 900 560" role="img" aria-label="Student activities illustration">
  <defs><linearGradient id="bg" x1="0" y1="0" x2="1" y2="1"><stop stop-color="#fffdf4"/><stop offset="1" stop-color="#eaf8ff"/></linearGradient></defs>
  <rect width="900" height="560" rx="36" fill="url(#bg)"/><circle cx="450" cy="270" r="170" fill="#fff2bd"/><path d="M182 405c138-85 390-84 538 0" stroke="#d9b961" stroke-width="30" stroke-linecap="round" fill="none"/>
  <g stroke="#28251d" stroke-width="12" stroke-linecap="round"><path d="M300 230l-48 78M300 230l58 76M300 230v-80"/><path d="M456 225l-65 72M456 225l75 70M456 225v-88"/><path d="M610 232l-45 80M610 232l54 78M610 232v-76"/></g>
  <g fill="#f3b85e"><circle cx="300" cy="128" r="44"/><circle cx="456" cy="116" r="44"/><circle cx="610" cy="134" r="44"/></g>
  <path d="M242 302c75 56 140 58 203 0 64 58 136 58 213 0" stroke="#f59cb1" stroke-width="22" stroke-linecap="round" fill="none"/>
  <g fill="#fff1c0"><rect x="156" y="86" width="92" height="80" rx="18"/><rect x="672" y="88" width="92" height="80" rx="18"/></g>
</svg>
