<svg xmlns="http://www.w3.org/2000/svg" viewBox="0 0 900 560" role="img" aria-label="School campus illustration">
  <defs><linearGradient id="sky" x1="0" y1="0" x2="1" y2="1"><stop stop-color="#fffaf0"/><stop offset="1" stop-color="#fffdf4"/></linearGradient><linearGradient id="wall" x1="0" y1="0" x2="1" y2="1"><stop stop-color="#fff7df"/><stop offset="1" stop-color="#e9f5ff"/></linearGradient></defs>
  <rect width="900" height="560" rx="36" fill="url(#sky)"/><circle cx="765" cy="92" r="54" fill="#ffe083"/><path d="M0 430c120-60 215-38 335-20 150 23 286-56 565 18v132H0z" fill="#fff0bb"/>
  <path d="M170 210h560v235H170z" fill="url(#wall)" stroke="#ead8a4" stroke-width="6"/><path d="M125 200h650l-60-75H185z" fill="#ffd86f"/><path d="M302 127h296v318H302z" fill="#fffdf5" stroke="#ffd86f" stroke-width="6"/><path d="M420 318h62v127h-62zM498 318h62v127h-62z" fill="#8ed7b8"/>
  <g fill="#fff0bb" stroke="#8a7a55" stroke-width="4"><rect x="205" y="250" width="70" height="55" rx="10"/><rect x="625" y="250" width="70" height="55" rx="10"/><rect x="338" y="178" width="64" height="50" rx="10"/><rect x="498" y="178" width="64" height="50" rx="10"/></g>
  <path d="M370 128l80-70 80 70" fill="#f5c65d" stroke="#dfad3b" stroke-width="6"/><text x="450" y="106" text-anchor="middle" font-family="Georgia,serif" font-size="28" fill="#28251d">VD</text>
  <g fill="#f4cf75"><circle cx="93" cy="358" r="42"/><rect x="84" y="358" width="18" height="89" rx="8"/><circle cx="812" cy="365" r="48"/><rect x="802" y="365" width="20" height="85" rx="8"/></g>
</svg>
