<svg xmlns="http://www.w3.org/2000/svg" viewBox="0 0 900 560" role="img" aria-label="Playground illustration">
  <defs><linearGradient id="bg" x1="0" y1="0" x2="0" y2="1"><stop stop-color="#fffaf0"/><stop offset="1" stop-color="#fbfff6"/></linearGradient></defs>
  <rect width="900" height="560" rx="36" fill="url(#bg)"/><path d="M0 385c138-50 237-8 350-20 120-13 206-75 550-2v197H0z" fill="#bfe9bd"/><circle cx="755" cy="92" r="50" fill="#ffe083"/>
  <path d="M170 372l145-190 145 190" fill="none" stroke="#8a7a55" stroke-width="14" stroke-linecap="round"/><path d="M315 182v206" stroke="#8a7a55" stroke-width="14" stroke-linecap="round"/><path d="M245 245h140l-32 126H277z" fill="#f5c65d"/>
  <path d="M520 375c40-88 92-129 165-160v160z" fill="#f59cb1"/><path d="M512 375h200" stroke="#28251d" stroke-width="12" stroke-linecap="round"/><circle cx="156" cy="392" r="39" fill="#fff"/><circle cx="742" cy="393" r="39" fill="#fff"/><path d="M102 222c36-24 72-24 108 0 36 24 72 24 108 0" stroke="#77c98a" stroke-width="18" fill="none" stroke-linecap="round"/>
</svg>
